{
    "asset" : {
        "generator" : "Khronos glTF Blender I/O v1.1.46",
        "version" : "2.0"
    },
    "scene" : 0,
    "scenes" : [
        {
            "name" : "Scene",
            "nodes" : [
                0
            ]
        }
    ],
    "nodes" : [
        {
            "mesh" : 0,
            "name" : "Cylinder"
        }
    ],
    "meshes" : [
        {
            "name" : "Cylinder",
            "primitives" : [
                {
                    "attributes" : {
                        "POSITION" : 0,
                        "NORMAL" : 1,
                        "TEXCOORD_0" : 2
                    },
                    "indices" : 3
                }
            ]
        }
    ],
    "accessors" : [
        {
            "bufferView" : 0,
            "componentType" : 5126,
            "count" : 221,
            "max" : [
                0.4345860183238983,
                0.05000000074505806,
                0.49242129921913147
            ],
            "min" : [
                -0.4345860183238983,
                -0.05000000074505806,
                -0.49242129921913147
            ],
            "type" : "VEC3"
        },
        {
            "bufferView" : 1,
            "componentType" : 5126,
            "count" : 221,
            "type" : "VEC3"
        },
        {
            "bufferView" : 2,
            "componentType" : 5126,
            "count" : 221,
            "type" : "VEC2"
        },
        {
            "bufferView" : 3,
            "componentType" : 5123,
            "count" : 843,
            "type" : "SCALAR"
        }
    ],
    "bufferViews" : [
        {
            "buffer" : 0,
            "byteLength" : 2652,
            "byteOffset" : 0
        },
        {
            "buffer" : 0,
            "byteLength" : 2652,
            "byteOffset" : 2652
        },
        {
            "buffer" : 0,
            "byteLength" : 1768,
            "byteOffset" : 5304
        },
        {
            "buffer" : 0,
            "byteLength" : 1686,
            "byteOffset" : 7072
        }
    ],
    "buffers" : [
        {
            "byteLength" : 8760,
            "uri" : "hextile2_bevel.bin"
        }
    ]
}
